<?xml version="1.0" encoding="UTF-8"?>
<svg id="Calque_1" data-name="Calque 1" xmlns="http://www.w3.org/2000/svg" viewBox="0 0 623.38 595.28">
  <defs>
    <style>
      .cls-1 {
        fill: #0e0e0e;
        stroke-width: 0px;
      }
    </style>
  </defs>
  <path class="cls-1" d="m461.73,376.3c0,48.09-29.68,91.43-75.4,109.24-19.59,7.72-39.18,10.09-76.58,10.09h-77.31c-42.52,0-75.44-37.22-70.26-79.42l33.68-273.95c2.99-24.34,23.66-42.62,48.18-42.62h83.52c51.05,0,74.8,5.35,93.8,20.19,20.19,15.43,31.47,42.15,31.47,71.83,0,22.56-6.53,45.12-17.81,61.75-8.01,11.6-14.93,18.89-26.4,25.86-6.67,4.05-5.61,13.99,1.72,16.62,10.13,3.63,16.81,7.77,24.68,14.51,17.21,14.84,26.71,38,26.71,65.9Z"/>
</svg>